<svg width="32" height="30" viewBox="0 0 32 30" fill="none" xmlns="http://www.w3.org/2000/svg">
<path fill-rule="evenodd" clip-rule="evenodd" d="M9.75031 13.4355H22.2534C22.9411 13.4355 23.5037 13.9982 23.5037 14.6859V22.1877C23.5037 22.8753 22.941 23.438 22.2534 23.438H9.75031C9.0627 23.438 8.5 22.8754 8.5 22.1877V14.6859C8.5 13.9981 9.06264 13.4355 9.75031 13.4355Z" fill="#FF7D00"/>
<path d="M31.3788 28.1278L31.3788 26.2524C31.3788 25.9071 31.0988 25.6272 30.7536 25.6272H30.1221L29.8225 11.2487H30.7536C31.0988 11.2487 31.3787 10.9688 31.3787 10.6235V8.12292C32.2073 8.09217 32.2067 6.90306 31.3787 6.87262H30.8806L16.2439 0.670653C16.0879 0.604574 15.912 0.604574 15.7561 0.670653L1.11926 6.87268H0.6212C-0.207379 6.90344 -0.206754 8.09254 0.6212 8.12299H0.621262V10.6236C0.621262 10.9689 0.901206 11.2488 1.24642 11.2488H2.17746L1.87788 25.6273H1.24642C0.901206 25.6273 0.621262 25.9072 0.621262 26.2524V28.1279H0.6212C-0.207379 28.1587 -0.206754 29.3478 0.6212 29.3782H31.3788C32.2073 29.3474 32.2067 28.1583 31.3788 28.1278ZM28.8715 25.6273H26.3842L26.6837 11.2488H28.572L28.8715 25.6273ZM6.86642 25.6273L6.56685 11.2488H25.4331L25.1335 25.6273H6.86642ZM16 1.92521L27.676 6.87268H22.3236L16.2439 4.29655C16.0879 4.23047 15.912 4.23047 15.7561 4.29655L9.67643 6.87268H4.32399L16 1.92521ZM19.1188 6.87268H12.8812L16 5.55117L19.1188 6.87268ZM1.87157 8.12299H30.1285V9.99845H1.87157V8.12299ZM3.42808 11.2487H5.31629L5.61587 25.6272H3.1285L3.42808 11.2487ZM1.87157 26.8776H30.1285V28.1279H1.87157V26.8776Z" fill="#FF7D00"/>
<path d="M15.9184 15.9375C14.8843 15.9375 14.043 16.7788 14.043 17.813V20.3136C14.0737 21.1422 15.2628 21.1415 15.2933 20.3136V19.6884H16.5436V20.3136C16.5743 21.1422 17.7634 21.1415 17.7939 20.3136V17.813C17.7939 16.7788 16.9526 15.9375 15.9184 15.9375ZM16.5436 18.4381H15.2933V17.813C15.3248 16.9846 16.5123 16.9852 16.5436 17.813V18.4381Z" fill="white"/>
<path d="M20.9781 18.437L21.8884 16.8766C22.2808 16.1471 21.2498 15.5465 20.8085 16.2466L20.2545 17.1964L19.7004 16.2466C19.5266 15.9484 19.144 15.8476 18.8454 16.0216C18.5472 16.1956 18.4465 16.5784 18.6204 16.8766L19.5307 18.437L18.6204 19.9975C18.4465 20.2957 18.5472 20.6785 18.8454 20.8524C19.1385 21.0248 19.5255 20.9284 19.7004 20.6275L20.2545 19.6777L20.8085 20.6275C20.9834 20.9285 21.3704 21.0248 21.6635 20.8524C21.9618 20.6785 22.0625 20.2957 21.8885 19.9975L20.9781 18.437Z" fill="white"/>
<path d="M12.8365 15.9375H10.6485C9.81996 15.9683 9.82059 17.1574 10.6485 17.1878H11.1173V20.3136C11.1481 21.1422 12.3372 21.1415 12.3677 20.3136V17.1878H12.8365C13.6651 17.1571 13.6645 15.9679 12.8365 15.9375Z" fill="white"/>
</svg>
