<svg width="32" height="32" viewBox="0 0 32 32" fill="none" xmlns="http://www.w3.org/2000/svg">
<path d="M7.7418 0C3.47297 0 0 3.47297 0 7.7418C0 12.0106 3.47297 15.4836 7.7418 15.4836H15.4836V7.7418C15.4836 3.47297 12.0106 0 7.7418 0ZM14.4514 14.4514H7.7418C4.04225 14.4514 1.03224 11.4414 1.03224 7.7418C1.03224 4.04225 4.04225 1.03224 7.7418 1.03224C11.4414 1.03224 14.4514 4.04225 14.4514 7.7418V14.4514Z" fill="#FF7D00"/>
<path d="M9.44639 2.32617L9.13672 3.31093C10.5834 3.76666 11.7189 4.90264 12.1751 6.34933L13.1594 6.03863C12.6025 4.27091 11.2141 2.88307 9.44639 2.32617Z" fill="#FF7D00"/>
<path d="M0 24.2594C0 28.5282 3.47297 32.0012 7.7418 32.0012C12.0106 32.0012 15.4836 28.5282 15.4836 24.2594V16.5176H7.7418C3.47297 16.5176 0 19.9906 0 24.2594ZM14.4514 24.2594C14.4514 27.9589 11.4414 30.9689 7.7418 30.9689C4.04225 30.9689 1.03224 27.9589 1.03224 24.2594C1.03224 20.5598 4.04225 17.5498 7.7418 17.5498H14.4514V24.2594Z" fill="#FF7D00"/>
<path d="M6.34686 19.8266L6.03719 18.8418C4.26948 19.3987 2.88163 20.7871 2.32422 22.5543L3.30846 22.865C3.76471 21.4183 4.90069 20.2823 6.34686 19.8266Z" fill="#FF7D00"/>
<path d="M31.9992 7.7418C31.9992 3.47297 28.5263 0 24.2574 0C19.9886 0 16.5156 3.47297 16.5156 7.7418V15.4836H24.2574C28.5263 15.4836 31.9992 12.0106 31.9992 7.7418ZM17.5479 7.7418C17.5479 4.04225 20.5579 1.03224 24.2574 1.03224C27.957 1.03224 30.967 4.04225 30.967 7.7418C30.967 11.4414 27.957 14.4514 24.2574 14.4514H17.5479V7.7418Z" fill="#FF7D00"/>
<path d="M25.6523 12.1732L25.9625 13.1579C27.7302 12.601 29.1181 11.2127 29.6755 9.44547L28.6913 9.13477C28.2345 10.5815 27.0985 11.7174 25.6523 12.1732Z" fill="#FF7D00"/>
<path d="M24.2574 16.5176H16.5156V24.2594C16.5156 28.5282 19.9886 32.0012 24.2574 32.0012C28.5263 32.0012 31.9992 28.5282 31.9992 24.2594C31.9992 19.9906 28.5263 16.5176 24.2574 16.5176ZM27.9828 29.8355L27.3098 29.1625L28.2352 28.2371L27.5054 27.5073L26.58 28.4327L25.7614 27.6142L26.6868 26.6888L25.957 25.959L25.0316 26.8844L23.955 25.8077L25.8058 23.9569L29.8336 27.9847C29.3438 28.7161 28.7141 29.3457 27.9828 29.8355ZM23.7413 22.9247L24.5599 23.7433L23.7413 24.5618L22.9227 23.7433L23.7413 22.9247ZM30.3538 27.0454L25.8058 22.4973L25.2897 23.0135L23.7413 21.4651L22.9671 22.2393L19.4611 18.7333L18.7313 19.4631L22.2373 22.9691L21.4632 23.7433L23.0115 25.2916L22.4954 25.8077L27.0434 30.3558C26.1934 30.7455 25.252 30.9689 24.2574 30.9689C20.5579 30.9689 17.5479 27.9589 17.5479 24.2594V17.5498H24.2574C27.957 17.5498 30.967 20.5598 30.967 24.2594C30.967 25.2539 30.7435 26.1953 30.3538 27.0454Z" fill="#FF7D00"/>
<path d="M25.962 18.8418L25.6523 19.8266C27.099 20.2823 28.2345 21.4183 28.6907 22.865L29.675 22.5543C29.1181 20.7865 27.7297 19.3987 25.962 18.8418Z" fill="#FF7D00"/>
<path d="M7.71642 3.88743C7.20494 3.37699 6.52573 3.0957 5.80367 3.0957C4.31157 3.0957 3.09766 4.30962 3.09766 5.80121C3.09766 6.52429 3.37894 7.20402 3.89042 7.71446L7.76906 11.5941C8.28054 12.1046 8.95975 12.3859 9.6818 12.3859C11.1739 12.3859 12.3878 11.172 12.3878 9.68037C12.3878 8.95728 12.1065 8.27755 11.5951 7.76711L7.71642 3.88743ZM4.1299 5.80121C4.1299 4.87838 4.88085 4.12794 5.80367 4.12794C6.25063 4.12794 6.67076 4.30188 6.98714 4.61774L8.56131 6.19242L6.19438 8.55935L4.6197 6.98415C4.30383 6.6688 4.1299 6.24868 4.1299 5.80121ZM9.6818 11.3536C9.23484 11.3536 8.81472 11.1797 8.49834 10.8638L6.92417 9.28915L9.2911 6.92222L10.8658 8.49742C11.1816 8.81277 11.3556 9.23289 11.3556 9.68037C11.3556 10.6032 10.6046 11.3536 9.6818 11.3536Z" fill="#FF7D00"/>
<path d="M27.8712 7.22467C27.8712 4.94806 26.0189 3.0957 23.7422 3.0957C21.4656 3.0957 19.6133 4.94806 19.6133 7.22467C19.6133 9.50127 21.4656 11.3536 23.7422 11.3536C26.0189 11.3536 27.8712 9.50127 27.8712 7.22467ZM23.7422 4.12794C24.4101 4.12794 25.0274 4.34265 25.5337 4.70342L21.221 9.01612C20.8602 8.50981 20.6455 7.89253 20.6455 7.22467C20.6455 5.51682 22.0344 4.12794 23.7422 4.12794ZM23.7422 10.3214C23.0744 10.3214 22.4571 10.1067 21.9508 9.74591L26.2635 5.43321C26.6243 5.93953 26.839 6.55681 26.839 7.22467C26.839 8.93251 25.4501 10.3214 23.7422 10.3214Z" fill="#FF7D00"/>
<path d="M4.12891 25.8062C4.12891 27.2292 5.28656 28.3868 6.70951 28.3868C9.83978 28.3868 12.3868 25.8398 12.3868 22.7095C12.3868 21.2866 11.2292 20.1289 9.80623 20.1289C6.67596 20.1289 4.12891 22.676 4.12891 25.8062ZM9.80623 21.1611C10.6599 21.1611 11.3546 21.8558 11.3546 22.7095C11.3546 25.271 9.2705 27.3546 6.70951 27.3546C5.85584 27.3546 5.16115 26.6599 5.16115 25.8062C5.16115 23.2447 7.24524 21.1611 9.80623 21.1611Z" fill="#FF7D00"/>
<path d="M8.92389 22.8593L6.85938 24.9238L7.58927 25.6537L9.65379 23.5892L8.92389 22.8593Z" fill="#FF7D00"/>
</svg>
