<svg width="32" height="32" viewBox="0 0 32 32" fill="none" xmlns="http://www.w3.org/2000/svg">
<path d="M29.3354 25.0648H28.2687V23.9982C28.2687 23.7032 28.0298 23.4648 27.7354 23.4648H25.6021C25.3077 23.4648 25.0687 23.7032 25.0687 23.9982V25.0648H24.0021C23.7077 25.0648 23.4688 25.3032 23.4688 25.5982V27.7315C23.4688 28.0264 23.7077 28.2648 24.0021 28.2648H25.0687V29.3315C25.0687 29.6264 25.3077 29.8648 25.6021 29.8648H27.7354C28.0298 29.8648 28.2687 29.6264 28.2687 29.3315V28.2648H29.3354C29.6298 28.2648 29.8687 28.0264 29.8687 27.7315V25.5982C29.8687 25.3032 29.6298 25.0648 29.3354 25.0648ZM28.8021 27.1982H27.7354C27.441 27.1982 27.2021 27.4366 27.2021 27.7315V28.7982H26.1354V27.7315C26.1354 27.4366 25.8965 27.1982 25.6021 27.1982H24.5354V26.1315H25.6021C25.8965 26.1315 26.1354 25.8931 26.1354 25.5982V24.5315H27.2021V25.5982C27.2021 25.8931 27.441 26.1315 27.7354 26.1315H28.8021V27.1982Z" fill="#FF7D00"/>
<path d="M11.2013 12.267H20.8013C21.0957 12.267 21.3346 12.0286 21.3346 11.7337C21.3346 8.79291 18.9421 6.40039 16.0013 6.40039C13.0605 6.40039 10.668 8.79291 10.668 11.7337C10.668 12.0286 10.9069 12.267 11.2013 12.267ZM20.2349 11.2004H16.5346V7.50439C18.461 7.74652 19.9933 9.27398 20.2349 11.2004ZM15.4679 7.50439V11.2004H11.7677C12.0093 9.27398 13.5416 7.74652 15.4679 7.50439Z" fill="#FF7D00"/>
<path d="M31.9381 25.8992C31.9189 25.7654 31.897 25.632 31.8677 25.5019C31.8522 25.432 31.8325 25.3632 31.8144 25.2939C31.7834 25.1771 31.7493 25.0619 31.7109 24.9488C31.6858 24.8747 31.6586 24.8022 31.6304 24.7296C31.5898 24.6256 31.545 24.5238 31.4981 24.423C31.4629 24.3478 31.4282 24.2726 31.3898 24.199C31.3408 24.1056 31.2869 24.0155 31.2325 23.9254C31.1882 23.8512 31.1461 23.776 31.0981 23.704C31.0309 23.6038 30.9568 23.5083 30.8826 23.4128C30.7946 23.2987 30.7013 23.1888 30.6037 23.0822C30.537 23.0091 30.472 22.9355 30.4016 22.8667C30.336 22.8022 30.2661 22.7419 30.1968 22.6806C30.1216 22.6139 30.0453 22.5483 29.9658 22.4854C29.9317 22.4582 29.9013 22.4272 29.8661 22.4011V16.5334H31.4661C31.6816 16.5334 31.8762 16.4038 31.9589 16.2043C32.0416 16.0049 31.9957 15.7755 31.8432 15.623L27.2 10.9793V1.60013C27.2 1.30519 26.9611 1.0668 26.6667 1.0668H21.3333C21.0389 1.0668 20.8 1.30519 20.8 1.60013V4.57931L16.3771 0.156399C16.1686 -0.0521331 15.8315 -0.0521331 15.623 0.156399L0.156367 15.623C0.00383425 15.7755 -0.0420322 16.0049 0.0406341 16.2043C0.1233 16.4038 0.317966 16.5334 0.533432 16.5334H2.13343V29.3333C2.13343 29.6283 2.37236 29.8667 2.66676 29.8667H5.86674H15.4667H22.4011C22.4261 29.8997 22.4549 29.9285 22.4805 29.9611C22.5467 30.0448 22.616 30.1253 22.6864 30.2048C22.7445 30.2704 22.8021 30.3371 22.8629 30.3995C22.9371 30.4752 23.016 30.5456 23.0949 30.6165C23.1883 30.7013 23.2837 30.7829 23.3824 30.8608C23.4875 30.9435 23.5936 31.0251 23.7051 31.0997C23.7749 31.1467 23.848 31.1872 23.92 31.2304C24.0117 31.2859 24.104 31.3408 24.1995 31.3909C24.2725 31.4293 24.3472 31.4635 24.4219 31.4981C24.5232 31.5456 24.6256 31.5899 24.7296 31.6309C24.8021 31.6592 24.8747 31.6859 24.9483 31.7109C25.0619 31.7499 25.1771 31.7835 25.2939 31.8144C25.3632 31.8325 25.4315 31.8523 25.5013 31.8677C25.632 31.8971 25.7648 31.9184 25.8987 31.9381C25.9584 31.9467 26.0165 31.9589 26.0768 31.9653C26.2709 31.9867 26.4672 32 26.6667 32C29.6074 32 32 29.6075 32 26.6667C32 26.4672 31.9872 26.2704 31.9653 26.0768C31.9589 26.0171 31.9466 25.9584 31.9381 25.8992ZM21.8667 2.13346H26.1333V9.91263L21.8667 5.64598V2.13346ZM16 1.28759L20.9563 6.24384L26.2896 11.5772L30.1792 15.4667H29.3333H2.66676H1.82089L16 1.28759ZM6.40007 28.8V22.9334C6.40007 20.5808 8.3142 18.6667 10.6667 18.6667C13.0192 18.6667 14.9334 20.5808 14.9334 22.9334V28.8H6.40007ZM16 28.8V22.9334C16 19.9926 13.6075 17.6001 10.6667 17.6001C7.72594 17.6001 5.33341 19.9926 5.33341 22.9334V28.8H3.20009V16.5334H28.8V21.7819C28.4608 21.6331 28.1045 21.5168 27.7333 21.4411V18.6667C27.7333 18.3718 27.4944 18.1334 27.2 18.1334H18.6667C18.3723 18.1334 18.1334 18.3718 18.1334 18.6667V24C18.1334 24.295 18.3723 24.5334 18.6667 24.5334H21.7819C21.4949 25.1872 21.3333 25.9083 21.3333 26.6667C21.3333 27.4251 21.4949 28.1461 21.7819 28.8H16ZM26.0768 21.368C26.0171 21.3744 25.9584 21.3867 25.8987 21.3952C25.7648 21.4144 25.632 21.4363 25.5013 21.4656C25.4315 21.4811 25.3632 21.5008 25.2939 21.519C25.1771 21.5499 25.0619 21.584 24.9483 21.6224C24.8747 21.6475 24.8021 21.6742 24.7301 21.7024C24.6256 21.7435 24.5232 21.7883 24.4219 21.8352C24.3472 21.8699 24.2725 21.9046 24.1995 21.9424C24.1045 21.992 24.0128 22.047 23.9216 22.1024C23.8491 22.1462 23.7755 22.1867 23.7056 22.2342C23.5973 22.3067 23.4939 22.3867 23.3915 22.4667C23.288 22.5472 23.1888 22.6326 23.0912 22.7211C23.0144 22.7904 22.9376 22.8592 22.8651 22.9328C22.8027 22.9968 22.744 23.0646 22.6843 23.1318C22.6155 23.2096 22.5477 23.288 22.4832 23.3696C22.4571 23.4027 22.4272 23.4326 22.4016 23.4662H19.2V19.1995H26.6667V21.3328C26.4672 21.3334 26.2709 21.3467 26.0768 21.368ZM26.6667 30.9333C26.5019 30.9333 26.3387 30.9216 26.1771 30.9029C26.128 30.8976 26.0805 30.888 26.032 30.8805C25.9195 30.8635 25.8075 30.8432 25.6971 30.8176C25.6427 30.8048 25.5888 30.7904 25.5349 30.776C25.4315 30.7477 25.3296 30.7147 25.2293 30.6789C25.1771 30.6603 25.1243 30.6421 25.0731 30.6219C24.9632 30.5776 24.8565 30.5275 24.7509 30.4741C24.7141 30.4555 24.6757 30.44 24.6395 30.4203C24.5077 30.3493 24.3813 30.2699 24.2576 30.1851C24.2043 30.1488 24.1541 30.1083 24.1029 30.0693C24.0293 30.0139 23.9563 29.9568 23.8864 29.8965C23.8336 29.8512 23.7829 29.8043 23.7323 29.7568C23.6635 29.6917 23.5973 29.6235 23.5328 29.5531C23.4907 29.5072 23.4475 29.4629 23.4075 29.4155C23.3088 29.2981 23.2139 29.1765 23.1269 29.0475C22.6683 28.3664 22.4 27.5472 22.4 26.6667C22.4 25.7851 22.6688 24.9654 23.1285 24.2848C23.2149 24.1568 23.3088 24.0363 23.4069 23.92C23.448 23.871 23.4923 23.8251 23.536 23.7782C23.5995 23.7094 23.664 23.6422 23.7317 23.5782C23.7829 23.5296 23.8347 23.4822 23.888 23.4363C23.9573 23.3766 24.0293 23.32 24.1024 23.2651C24.1541 23.2256 24.2048 23.1851 24.2587 23.1483C24.3819 23.0635 24.5088 22.9846 24.64 22.9136C24.6763 22.8939 24.7152 22.8784 24.752 22.8598C24.8576 22.807 24.9643 22.7563 25.0736 22.712C25.1248 22.6912 25.1776 22.6736 25.2299 22.655C25.3307 22.6187 25.4325 22.5862 25.5355 22.5579C25.5893 22.543 25.6432 22.5286 25.6976 22.5163C25.808 22.4907 25.9195 22.4704 26.0325 22.4534C26.0811 22.4459 26.1285 22.4368 26.1776 22.431C26.3387 22.4118 26.5019 22.4 26.6667 22.4C26.8272 22.4 26.9856 22.4112 27.1419 22.4283C27.8427 22.5062 28.4933 22.7531 29.0501 23.1296C29.177 23.215 29.2965 23.3083 29.4122 23.4054C29.4629 23.448 29.5109 23.4944 29.5594 23.5392C29.6261 23.6006 29.6912 23.6635 29.753 23.7286C29.8032 23.7808 29.8517 23.8342 29.8992 23.8891C29.9573 23.9563 30.0117 24.0262 30.065 24.0971C30.1056 24.151 30.1482 24.2032 30.1861 24.2592C30.2698 24.3819 30.3488 24.5078 30.4192 24.6384C30.44 24.6768 30.4565 24.7179 30.4762 24.7568C30.528 24.8603 30.5776 24.9648 30.6208 25.072C30.6421 25.1243 30.6602 25.1782 30.6794 25.2315C30.7152 25.3312 30.7477 25.432 30.776 25.5344C30.7909 25.5888 30.8053 25.6432 30.8181 25.6982C30.8437 25.808 30.864 25.9195 30.8805 26.0315C30.888 26.08 30.897 26.128 30.9029 26.1771C30.9216 26.3387 30.9333 26.5019 30.9333 26.6667C30.9333 29.0192 29.0192 30.9333 26.6667 30.9333Z" fill="#FF7D00"/>
<path d="M12.268 22.9336C11.3858 22.9336 10.668 23.6515 10.668 24.5336C10.668 25.4157 11.3858 26.1336 12.268 26.1336C13.1501 26.1336 13.868 25.4157 13.868 24.5336C13.868 23.6515 13.1501 22.9336 12.268 22.9336ZM12.268 25.0669C11.9741 25.0669 11.7346 24.828 11.7346 24.5336C11.7346 24.2392 11.9741 24.0003 12.268 24.0003C12.5618 24.0003 12.8013 24.2392 12.8013 24.5336C12.8013 24.828 12.5618 25.0669 12.268 25.0669Z" fill="#FF7D00"/>
</svg>
