<svg width="32" height="32" viewBox="0 0 32 32" fill="none" xmlns="http://www.w3.org/2000/svg">
<path fill-rule="evenodd" clip-rule="evenodd" d="M16.0005 26.1612C19.5658 26.1612 22.4738 23.2533 22.4738 19.688C22.1427 11.1133 9.85716 11.1156 9.52734 19.688C9.52734 23.2533 12.4352 26.1612 16.0005 26.1612Z" fill="#FF7D00"/>
<path d="M28.9419 6.43306L22.692 0.183062C22.5747 0.065875 22.4158 0 22.2501 0H3.5C3.15481 0 2.875 0.279875 2.875 0.625V31.375C2.875 31.7201 3.15481 32 3.5 32H28.5C28.8451 32 29.125 31.7201 29.125 31.375V6.875C29.125 6.70925 29.0591 6.55031 28.9419 6.43306ZM22.8751 2.13394L26.9911 6.25H22.875V2.13394H22.8751ZM4.125 30.75V1.25H21.625V6.875C21.625 7.22013 21.9049 7.5 22.25 7.5H27.875V30.75H4.125Z" fill="#FF7D00"/>
<path d="M6.4687 3.75V7.49994C6.49945 8.32831 7.68827 8.32769 7.7187 7.49994V3.75H8.18745C9.01583 3.71925 9.0152 2.53044 8.18745 2.5H5.99995C5.17158 2.53075 5.1722 3.71956 5.99995 3.75H6.4687Z" fill="#FF7D00"/>
<path d="M10.0156 8.12448C10.3608 8.12448 10.6406 7.84461 10.6406 7.49948V6.56192H11.8906V7.49948C11.9214 8.32786 13.1102 8.32723 13.1406 7.49948V4.37448C13.0461 1.88986 9.48431 1.89173 9.39062 4.37448V7.49948C9.39062 7.84461 9.67044 8.12448 10.0156 8.12448ZM10.6406 4.37448C10.6721 3.5463 11.8594 3.54692 11.8906 4.37448V5.31192H10.6406V4.37448Z" fill="#FF7D00"/>
<path d="M14.2284 8.05923C14.5305 8.21216 14.912 8.09154 15.067 7.77966L15.6017 6.71016L16.1365 7.77966C16.2914 8.09154 16.6729 8.21216 16.975 8.05923C17.2837 7.90485 17.4089 7.52941 17.2545 7.22073L16.3005 5.31266L17.2545 3.40466C17.4089 3.09598 17.2837 2.72054 16.9749 2.56616C16.6662 2.41173 16.2908 2.53685 16.1364 2.84573L15.6017 3.9151L15.067 2.84573C14.9127 2.53698 14.5374 2.41191 14.2285 2.56616C13.9197 2.72054 13.7946 3.09598 13.949 3.40466L14.903 5.31266L13.949 7.22073C13.7945 7.52948 13.9197 7.90491 14.2284 8.05923Z" fill="#FF7D00"/>
<path d="M25.375 10H6.62495C5.79658 10.0308 5.7972 11.2196 6.62495 11.25H25.375C26.2033 11.2192 26.2026 10.0305 25.375 10Z" fill="#FF7D00"/>
<path d="M25.375 28.125H6.62495C5.79658 28.1558 5.7972 29.3446 6.62495 29.375H25.375C26.2033 29.3442 26.2026 28.1555 25.375 28.125Z" fill="#FF7D00"/>
<path d="M9.7862 12.5898H6.62495C5.79658 12.6206 5.7972 13.8094 6.62495 13.8398H9.7862C10.6146 13.8091 10.614 12.6203 9.7862 12.5898Z" fill="#FF7D00"/>
<path d="M6.62495 16.4277H7.90864C8.73702 16.397 8.73639 15.2082 7.90864 15.1777H6.62495C5.79658 15.2085 5.7972 16.3973 6.62495 16.4277Z" fill="#FF7D00"/>
<path d="M6.62495 19.0176H7.12008C7.94845 18.9868 7.94783 17.798 7.12008 17.7676H6.62495C5.79658 17.7983 5.7972 18.9871 6.62495 19.0176Z" fill="#FF7D00"/>
<path d="M6.62495 21.6074H7.12008C7.94845 21.5767 7.94783 20.3879 7.12008 20.3574H6.62495C5.79658 20.3882 5.7972 21.577 6.62495 21.6074Z" fill="#FF7D00"/>
<path d="M6.62495 24.1973H7.90864C8.73702 24.1665 8.73639 22.9777 7.90864 22.9473H6.62495C5.79658 22.978 5.7972 24.1668 6.62495 24.1973Z" fill="#FF7D00"/>
<path d="M6.62495 26.7852H9.7862C10.6146 26.7544 10.614 25.5656 9.7862 25.5352H6.62495C5.79658 25.5659 5.7972 26.7547 6.62495 26.7852Z" fill="#FF7D00"/>
<path d="M14.1251 22.9345C14.4187 23.1056 14.8053 23.0074 14.9789 22.7058L18.1039 17.2931C18.2765 16.9941 18.174 16.6119 17.8751 16.4393C17.576 16.2667 17.1939 16.3692 17.0214 16.6681L13.8964 22.0808C13.7237 22.3797 13.8262 22.7619 14.1251 22.9345Z" fill="white"/>
<path d="M14.4377 17.6074C15.2661 17.5767 15.2655 16.3879 14.4377 16.3574H14.4372C13.6088 16.3883 13.61 17.5771 14.4377 17.6074Z" fill="white"/>
<path d="M17.5627 21.7676H17.5623C17.2171 21.7676 16.9375 22.0475 16.9375 22.3926C16.9683 23.2206 18.1572 23.2206 18.1877 22.3926C18.1877 22.0474 17.9079 21.7676 17.5627 21.7676Z" fill="white"/>
<path d="M25.376 12.5898H22.2148C21.3864 12.6206 21.387 13.8093 22.2148 13.8398H25.376C26.2044 13.809 26.2037 12.6203 25.376 12.5898Z" fill="#FF7D00"/>
<path d="M25.3734 15.1777H24.0898C23.2614 15.2085 23.262 16.3972 24.0898 16.4277H25.3734C26.2018 16.397 26.2011 15.2082 25.3734 15.1777Z" fill="#FF7D00"/>
<path d="M25.3779 17.7676H24.8828C24.0544 17.7983 24.055 18.9871 24.8828 19.0176H25.3779C26.2063 18.9868 26.2056 17.7981 25.3779 17.7676Z" fill="#FF7D00"/>
<path d="M25.3779 20.3574H24.8828C24.0544 20.3882 24.055 21.5769 24.8828 21.6074H25.3779C26.2063 21.5766 26.2056 20.3879 25.3779 20.3574Z" fill="#FF7D00"/>
<path d="M25.3734 22.9473H24.0898C23.2614 22.978 23.262 24.1668 24.0898 24.1973H25.3734C26.2018 24.1665 26.2011 22.9777 25.3734 22.9473Z" fill="#FF7D00"/>
<path d="M25.376 25.5352H22.2148C21.3864 25.5659 21.387 26.7547 22.2148 26.7852H25.376C26.2044 26.7544 26.2037 25.5657 25.376 25.5352Z" fill="#FF7D00"/>
</svg>
