<svg width="32" height="29" viewBox="0 0 32 29" fill="none" xmlns="http://www.w3.org/2000/svg">
<path d="M16.2385 7.0073C15.9975 7.09165 15.3771 7.18791 14.7917 6.25587L13.9375 6.88154C14.3747 7.57708 14.8939 7.94192 15.3967 8.08993V8.79788H16.429V8.10028C16.4723 8.0889 16.5178 8.08165 16.5591 8.06716C17.3028 7.80426 17.8066 7.1108 17.7829 6.37956C17.7705 5.99298 17.5754 5.05007 16.0383 4.63451C15.3394 4.44562 15.0818 4.14805 15.0751 3.93173C15.0679 3.70558 15.2929 3.44734 15.5871 3.34332C15.8287 3.25897 16.4491 3.16271 17.0344 4.09475L17.8887 3.46908C17.452 2.77354 16.9317 2.41439 16.429 2.2669V1.55273H15.3967V2.25034C15.3544 2.26172 15.3084 2.26897 15.2676 2.28346C14.5228 2.54635 14.0196 3.23982 14.0438 3.97106C14.0557 4.35764 14.2508 5.30055 15.7879 5.71611C16.4873 5.905 16.7444 6.20257 16.7511 6.41889C16.7588 6.64504 16.5333 6.90328 16.2385 7.0073Z" fill="#FF7D00"/>
<path d="M7.89502 21.7355L5.44585 12.4094C6.70321 12.3432 7.94147 11.8168 9.15496 11.2957C11.2996 10.3725 13.3291 9.50771 15.4841 11.0437V15.0606C14.3078 15.3007 13.4195 16.3461 13.4195 17.5954V23.8055H12.3871V24.8405H19.6133V23.8055H18.581V17.5954C18.581 16.3461 17.6927 15.3002 16.5164 15.0606V11.0437C18.6708 9.50823 20.7004 10.3725 22.8455 11.2957C24.059 11.8174 25.2973 12.3432 26.5546 12.4094L24.1055 21.7355H30.6065L28.1072 12.2226C28.4629 12.1118 28.8195 11.9571 29.1777 11.733L28.6306 10.8558C26.9247 11.9245 25.2229 11.1917 23.2523 10.345C22.0073 9.80942 20.6715 9.2386 19.2737 9.17288C20.4258 8.22325 21.1618 6.78353 21.1618 5.17511C21.1618 2.32155 18.8463 0 16.0002 0C13.1542 0 10.8387 2.32155 10.8387 5.17511C10.8387 6.78301 11.5747 8.22273 12.7263 9.17288C11.3285 9.2386 9.99268 9.8089 8.74823 10.345C6.77702 11.1927 5.07473 11.9234 3.36987 10.8558L2.82274 11.733C3.18095 11.9576 3.53762 12.1118 3.89325 12.2226L1.39453 21.7355H7.89502ZM25.4444 20.7004L27.3557 13.4242L29.267 20.7004H25.4444ZM17.5487 17.5954V23.8055H14.4518V17.5954C14.4518 16.7394 15.1465 16.0428 16.0002 16.0428C16.854 16.0428 17.5487 16.7394 17.5487 17.5954ZM11.871 5.17511C11.871 2.89237 13.7235 1.03502 16.0002 1.03502C18.277 1.03502 20.1295 2.89237 20.1295 5.17511C20.1295 7.45785 18.277 9.3152 16.0002 9.3152C13.7235 9.3152 11.871 7.45785 11.871 5.17511ZM2.73344 20.7004L4.64478 13.4242L6.55611 20.7004H2.73344Z" fill="#FF7D00"/>
<path d="M10.3242 28.982H21.6797V25.877H10.3242V28.982ZM11.3565 26.912H20.6474V27.947H11.3565V26.912Z" fill="#FF7D00"/>
<path d="M4.64542 25.3589C2.65305 25.3589 1.03232 23.7334 1.03232 21.7363H0C0 24.3047 2.08424 26.3939 4.64542 26.3939C7.20659 26.3939 9.29084 24.3047 9.29084 21.7363H8.25852C8.25852 23.7334 6.63779 25.3589 4.64542 25.3589Z" fill="#FF7D00"/>
<path d="M30.9695 21.7363C30.9695 23.7334 29.3487 25.3589 27.3564 25.3589C25.364 25.3589 23.7433 23.7334 23.7433 21.7363H22.7109C22.7109 24.3047 24.7952 26.3939 27.3564 26.3939C29.9175 26.3939 32.0018 24.3047 32.0018 21.7363H30.9695Z" fill="#FF7D00"/>
</svg>
