<svg xmlns="http://www.w3.org/2000/svg" width="48" height="48" viewBox="0 0 48 48" role="presentation" focusable="false" aria-hidden="true">
  <defs><linearGradient id="mfoil" x1="0" y1="0" x2="1" y2="1"><stop stop-color="#b8952e"/><stop offset=".5" stop-color="#f0d97d"/><stop offset="1" stop-color="#b8952e"/></linearGradient></defs>
  <circle cx="24" cy="24" r="21" fill="#1c1913" fill-opacity=".96" stroke="url(#mfoil)" stroke-width="1.5"/>
  <circle cx="24" cy="24" r="18.3" fill="none" stroke="url(#mfoil)" stroke-width="0.85" opacity=".6"/>
  <g fill="none" stroke="url(#mfoil)" stroke-width="2" stroke-linecap="round" stroke-linejoin="round" transform="translate(24 24) scale(.9) translate(-24 -24)"><path d="M24 11v16M15 16h18M15 16l-4 8h8Zm18 0-4 8h8Z" stroke-width="1.7"/><path d="M11 24q4 5 8 0M29 24q4 5 8 0" stroke-width="1.6"/><path d="M13 30c4-1.5 7-1 11 1 4-2 7-2.5 11-1v6c-4-1.5-7-1-11 1-4-2-7-2.5-11-1ZM24 31v6" stroke-width="1.7"/></g>
</svg>
